{
	"asset":{
		"generator":"Khronos glTF Blender I/O v4.5.47",
		"version":"2.0"
	},
	"scene":0,
	"scenes":[
		{
			"name":"Scene",
			"nodes":[
				0,
				1,
				2,
				3,
				4,
				5,
				6,
				7,
				8,
				9,
				10,
				11,
				12,
				13
			]
		}
	],
	"nodes":[
		{
			"mesh":0,
			"name":"Cube",
			"scale":[
				3.650327682495117,
				3.650327682495117,
				3.650327682495117
			],
			"translation":[
				-0.31008192896842957,
				1.2838544845581055,
				-10.08946418762207
			]
		},
		{
			"mesh":1,
			"name":"Cube.001",
			"rotation":[
				0,
				1,
				0,
				0
			],
			"scale":[
				-5.00115966796875,
				-0.0642964318394661,
				-3.934434175491333
			],
			"translation":[
				-0.31008192896842957,
				1.2838544845581055,
				-12.80316162109375
			]
		},
		{
			"mesh":2,
			"name":"Cube.003",
			"scale":[
				4,
				0.1925336718559265,
				4
			],
			"translation":[
				-0.31008192896842957,
				1.155261516571045,
				-12.80316162109375
			]
		},
		{
			"mesh":3,
			"name":"Cube.002",
			"scale":[
				4,
				4,
				4
			],
			"translation":[
				-0.31008192896842957,
				0.7552616596221924,
				-10.003162384033203
			]
		},
		{
			"mesh":4,
			"name":"Sphere",
			"scale":[
				5.741931438446045,
				6.9317474365234375,
				6.9317474365234375
			],
			"translation":[
				-0.31008192896842957,
				10.138872146606445,
				-9.289695739746094
			]
		},
		{
			"mesh":5,
			"name":"Cube.005",
			"scale":[
				4,
				4,
				4
			],
			"translation":[
				-0.31008192896842957,
				0.7552616596221924,
				-10.003162384033203
			]
		},
		{
			"mesh":6,
			"name":"Cube.012",
			"rotation":[
				0,
				0.7372773885726929,
				0,
				0.6755901575088501
			],
			"scale":[
				4,
				4,
				4
			],
			"translation":[
				5.585627555847168,
				9.901851654052734,
				-11.10059928894043
			]
		},
		{
			"mesh":7,
			"name":"Cube.013",
			"scale":[
				12.577535629272461,
				12.344443321228027,
				12.577535629272461
			],
			"translation":[
				-0.31008192896842957,
				12.341962814331055,
				-13.536233901977539
			]
		},
		{
			"mesh":8,
			"name":"Cube.006",
			"rotation":[
				0,
				1,
				0,
				7.549789415861596e-08
			],
			"scale":[
				1.4411725997924805,
				1.7068833112716675,
				1.7068833112716675
			],
			"translation":[
				-8.903960227966309,
				3.2678821086883545,
				6.897737979888916
			]
		},
		{
			"mesh":9,
			"name":"Cube.007",
			"rotation":[
				0,
				1,
				0,
				7.549789415861596e-08
			],
			"scale":[
				1.4411725997924805,
				1.7068833112716675,
				1.7068833112716675
			],
			"translation":[
				2.219043493270874,
				3.2678821086883545,
				6.897737979888916
			]
		},
		{
			"mesh":10,
			"name":"Cube.008",
			"rotation":[
				0,
				1,
				0,
				7.549789415861596e-08
			],
			"scale":[
				1.4411725997924805,
				1.7068833112716675,
				1.7068833112716675
			],
			"translation":[
				3.219043493270874,
				3.2678821086883545,
				13.446563720703125
			]
		},
		{
			"mesh":11,
			"name":"Cube.009",
			"rotation":[
				0,
				1,
				0,
				7.549789415861596e-08
			],
			"scale":[
				1.4411725997924805,
				1.7068833112716675,
				1.7068833112716675
			],
			"translation":[
				-9.903960227966309,
				3.2678821086883545,
				13.446563720703125
			]
		},
		{
			"mesh":12,
			"name":"Cube.010",
			"rotation":[
				0,
				1,
				0,
				7.549789415861596e-08
			],
			"scale":[
				1.4411725997924805,
				1.7068833112716675,
				1.7068833112716675
			],
			"translation":[
				-10.903960227966309,
				3.2678821086883545,
				20.274066925048828
			]
		},
		{
			"mesh":13,
			"name":"Cube.011",
			"rotation":[
				0,
				1,
				0,
				7.549789415861596e-08
			],
			"scale":[
				1.4411725997924805,
				1.7068833112716675,
				1.7068833112716675
			],
			"translation":[
				4.219043731689453,
				3.2678821086883545,
				20.274066925048828
			]
		}
	],
	"materials":[
		{
			"doubleSided":true,
			"name":"Material.002",
			"pbrMetallicRoughness":{
				"baseColorTexture":{
					"index":0
				},
				"metallicFactor":0,
				"roughnessFactor":0.5
			}
		},
		{
			"doubleSided":true,
			"name":"Material.004",
			"pbrMetallicRoughness":{
				"baseColorTexture":{
					"index":1
				},
				"metallicFactor":0,
				"roughnessFactor":0.5
			}
		},
		{
			"doubleSided":true,
			"name":"Material.003",
			"pbrMetallicRoughness":{
				"baseColorTexture":{
					"index":2
				},
				"metallicFactor":0,
				"roughnessFactor":0.5
			}
		},
		{
			"doubleSided":true,
			"name":"Material.001",
			"pbrMetallicRoughness":{
				"baseColorTexture":{
					"index":3
				},
				"metallicFactor":0,
				"roughnessFactor":0.5
			}
		},
		{
			"doubleSided":true,
			"name":"Material.013",
			"pbrMetallicRoughness":{
				"baseColorTexture":{
					"index":4
				},
				"metallicFactor":0,
				"roughnessFactor":0.5
			}
		},
		{
			"doubleSided":true,
			"name":"Material.012",
			"pbrMetallicRoughness":{
				"baseColorTexture":{
					"index":5
				},
				"metallicFactor":0,
				"roughnessFactor":0.5
			}
		},
		{
			"doubleSided":true,
			"name":"Material.006",
			"pbrMetallicRoughness":{
				"baseColorTexture":{
					"index":6
				},
				"metallicFactor":0,
				"roughnessFactor":0.5
			}
		},
		{
			"doubleSided":true,
			"name":"Material.007",
			"pbrMetallicRoughness":{
				"baseColorTexture":{
					"index":7
				},
				"metallicFactor":0,
				"roughnessFactor":0.5
			}
		},
		{
			"doubleSided":true,
			"name":"Material.008",
			"pbrMetallicRoughness":{
				"baseColorTexture":{
					"index":8
				},
				"metallicFactor":0,
				"roughnessFactor":0.5
			}
		},
		{
			"doubleSided":true,
			"name":"Material.009",
			"pbrMetallicRoughness":{
				"baseColorTexture":{
					"index":9
				},
				"metallicFactor":0,
				"roughnessFactor":0.5
			}
		},
		{
			"doubleSided":true,
			"name":"Material.010",
			"pbrMetallicRoughness":{
				"baseColorTexture":{
					"index":10
				},
				"metallicFactor":0,
				"roughnessFactor":0.5
			}
		},
		{
			"doubleSided":true,
			"name":"Material.011",
			"pbrMetallicRoughness":{
				"baseColorTexture":{
					"index":11
				},
				"metallicFactor":0,
				"roughnessFactor":0.5
			}
		}
	],
	"meshes":[
		{
			"name":"Cube.001",
			"primitives":[
				{
					"attributes":{
						"POSITION":0,
						"NORMAL":1,
						"TEXCOORD_0":2
					},
					"indices":3,
					"material":0
				}
			]
		},
		{
			"name":"Cube.002",
			"primitives":[
				{
					"attributes":{
						"POSITION":4,
						"NORMAL":5,
						"TEXCOORD_0":6
					},
					"indices":7,
					"material":1
				}
			]
		},
		{
			"name":"Cube.004",
			"primitives":[
				{
					"attributes":{
						"POSITION":8,
						"NORMAL":9,
						"TEXCOORD_0":10
					},
					"indices":7,
					"material":1
				}
			]
		},
		{
			"name":"Cube.006",
			"primitives":[
				{
					"attributes":{
						"POSITION":11,
						"NORMAL":12,
						"TEXCOORD_0":13
					},
					"indices":14,
					"material":0
				}
			]
		},
		{
			"name":"Sphere",
			"primitives":[
				{
					"attributes":{
						"POSITION":15,
						"NORMAL":16,
						"TEXCOORD_0":17
					},
					"indices":18,
					"material":2
				}
			]
		},
		{
			"name":"Cube.008",
			"primitives":[
				{
					"attributes":{
						"POSITION":19,
						"NORMAL":20,
						"TEXCOORD_0":21
					},
					"indices":22,
					"material":2
				},
				{
					"attributes":{
						"POSITION":23,
						"NORMAL":24,
						"TEXCOORD_0":25
					},
					"indices":26,
					"material":3
				},
				{
					"attributes":{
						"POSITION":27,
						"NORMAL":28,
						"TEXCOORD_0":29
					},
					"indices":30,
					"material":0
				},
				{
					"attributes":{
						"POSITION":31,
						"NORMAL":32,
						"TEXCOORD_0":33
					},
					"indices":34,
					"material":4
				}
			]
		},
		{
			"name":"Cube.015",
			"primitives":[
				{
					"attributes":{
						"POSITION":35,
						"NORMAL":36,
						"TEXCOORD_0":37
					},
					"indices":38,
					"material":3
				}
			]
		},
		{
			"name":"Cube.047",
			"primitives":[
				{
					"attributes":{
						"POSITION":39,
						"NORMAL":40,
						"TEXCOORD_0":41
					},
					"indices":42,
					"material":5
				}
			]
		},
		{
			"name":"Cube.022",
			"primitives":[
				{
					"attributes":{
						"POSITION":43,
						"NORMAL":44,
						"TEXCOORD_0":45
					},
					"indices":46,
					"material":6
				}
			]
		},
		{
			"name":"Cube.023",
			"primitives":[
				{
					"attributes":{
						"POSITION":47,
						"NORMAL":48,
						"TEXCOORD_0":49
					},
					"indices":46,
					"material":7
				}
			]
		},
		{
			"name":"Cube.024",
			"primitives":[
				{
					"attributes":{
						"POSITION":50,
						"NORMAL":51,
						"TEXCOORD_0":52
					},
					"indices":46,
					"material":8
				}
			]
		},
		{
			"name":"Cube.025",
			"primitives":[
				{
					"attributes":{
						"POSITION":53,
						"NORMAL":54,
						"TEXCOORD_0":55
					},
					"indices":46,
					"material":9
				}
			]
		},
		{
			"name":"Cube.026",
			"primitives":[
				{
					"attributes":{
						"POSITION":56,
						"NORMAL":57,
						"TEXCOORD_0":58
					},
					"indices":46,
					"material":10
				}
			]
		},
		{
			"name":"Cube.027",
			"primitives":[
				{
					"attributes":{
						"POSITION":59,
						"NORMAL":60,
						"TEXCOORD_0":61
					},
					"indices":46,
					"material":11
				}
			]
		}
	],
	"textures":[
		{
			"sampler":0,
			"source":0
		},
		{
			"sampler":0,
			"source":1
		},
		{
			"sampler":0,
			"source":2
		},
		{
			"sampler":0,
			"source":3
		},
		{
			"sampler":0,
			"source":4
		},
		{
			"sampler":0,
			"source":5
		},
		{
			"sampler":0,
			"source":6
		},
		{
			"sampler":0,
			"source":6
		},
		{
			"sampler":0,
			"source":6
		},
		{
			"sampler":0,
			"source":6
		},
		{
			"sampler":0,
			"source":6
		},
		{
			"sampler":0,
			"source":6
		}
	],
	"images":[
		{
			"mimeType":"image/jpeg",
			"name":"wooden-texture-dark-brown-boards_353502-268",
			"uri":"wooden-texture-dark-brown-boards_353502-268.jpg"
		},
		{
			"mimeType":"image/jpeg",
			"name":"brick-background-with-red-background-featuring-textured-red-bri",
			"uri":"brick-background-with-red-background-featuring-textured-red-bri.jpg"
		},
		{
			"mimeType":"image/jpeg",
			"name":"red-brick-wall-texture-background-vector-illustration_387782-13",
			"uri":"red-brick-wall-texture-background-vector-illustration_387782-13.jpg"
		},
		{
			"mimeType":"image/jpeg",
			"name":"O5NY8E0",
			"uri":"O5NY8E0.jpg"
		},
		{
			"mimeType":"image/jpeg",
			"name":"wooden-background-brown-wood-texture_119523-14073",
			"uri":"wooden-background-brown-wood-texture_119523-14073.jpg"
		},
		{
			"mimeType":"image/jpeg",
			"name":"wooden-background_1308-33421(1)",
			"uri":"wooden-background_1308-33421%281%29.jpg"
		},
		{
			"mimeType":"image/jpeg",
			"name":"wooden-background_1308-33421(1).jpg",
			"uri":"wooden-background_1308-33421%281%29.jpg.jpg"
		}
	],
	"accessors":[
		{
			"bufferView":0,
			"componentType":5126,
			"count":184,
			"max":[
				0.4380284547805786,
				1.2164480686187744,
				0.34509697556495667
			],
			"min":[
				-0.4380284547805786,
				0,
				-0.34509697556495667
			],
			"type":"VEC3"
		},
		{
			"bufferView":1,
			"componentType":5126,
			"count":184,
			"type":"VEC3"
		},
		{
			"bufferView":2,
			"componentType":5126,
			"count":184,
			"type":"VEC2"
		},
		{
			"bufferView":3,
			"componentType":5123,
			"count":300,
			"type":"SCALAR"
		},
		{
			"bufferView":4,
			"componentType":5126,
			"count":24,
			"max":[
				1,
				2,
				1
			],
			"min":[
				-1,
				0,
				-1
			],
			"type":"VEC3"
		},
		{
			"bufferView":5,
			"componentType":5126,
			"count":24,
			"type":"VEC3"
		},
		{
			"bufferView":6,
			"componentType":5126,
			"count":24,
			"type":"VEC2"
		},
		{
			"bufferView":7,
			"componentType":5123,
			"count":36,
			"type":"SCALAR"
		},
		{
			"bufferView":8,
			"componentType":5126,
			"count":24,
			"max":[
				1,
				0,
				1
			],
			"min":[
				-1,
				-2,
				-0.9999999403953552
			],
			"type":"VEC3"
		},
		{
			"bufferView":9,
			"componentType":5126,
			"count":24,
			"type":"VEC3"
		},
		{
			"bufferView":10,
			"componentType":5126,
			"count":24,
			"type":"VEC2"
		},
		{
			"bufferView":11,
			"componentType":5126,
			"count":1090,
			"max":[
				1.619767189025879,
				4.2826666831970215,
				0.30988359451293945
			],
			"min":[
				-1.619767189025879,
				0.001982984831556678,
				-0.30988359451293945
			],
			"type":"VEC3"
		},
		{
			"bufferView":12,
			"componentType":5126,
			"count":1090,
			"type":"VEC3"
		},
		{
			"bufferView":13,
			"componentType":5126,
			"count":1090,
			"type":"VEC2"
		},
		{
			"bufferView":14,
			"componentType":5123,
			"count":2190,
			"type":"SCALAR"
		},
		{
			"bufferView":15,
			"componentType":5126,
			"count":120,
			"max":[
				0.9807851314544678,
				0.9807852506637573,
				-0.020071666687726974
			],
			"min":[
				-0.9807851314544678,
				5.960464477539063e-08,
				-1.1837602853775024
			],
			"type":"VEC3"
		},
		{
			"bufferView":16,
			"componentType":5126,
			"count":120,
			"type":"VEC3"
		},
		{
			"bufferView":17,
			"componentType":5126,
			"count":120,
			"type":"VEC2"
		},
		{
			"bufferView":18,
			"componentType":5123,
			"count":588,
			"type":"SCALAR"
		},
		{
			"bufferView":19,
			"componentType":5126,
			"count":212,
			"max":[
				4.636664867401123,
				5.50209903717041,
				15.213428497314453
			],
			"min":[
				-4.638596534729004,
				-0.18003609776496887,
				-0.16283370554447174
			],
			"type":"VEC3"
		},
		{
			"bufferView":20,
			"componentType":5126,
			"count":212,
			"type":"VEC3"
		},
		{
			"bufferView":21,
			"componentType":5126,
			"count":212,
			"type":"VEC2"
		},
		{
			"bufferView":22,
			"componentType":5123,
			"count":414,
			"type":"SCALAR"
		},
		{
			"bufferView":23,
			"componentType":5126,
			"count":24,
			"max":[
				4.3166632652282715,
				2.2879278659820557,
				15.213428497314453
			],
			"min":[
				-4.351527214050293,
				-0.18003609776496887,
				-0.16283343732357025
			],
			"type":"VEC3"
		},
		{
			"bufferView":24,
			"componentType":5126,
			"count":24,
			"type":"VEC3"
		},
		{
			"bufferView":25,
			"componentType":5126,
			"count":24,
			"type":"VEC2"
		},
		{
			"bufferView":26,
			"componentType":5123,
			"count":36,
			"type":"SCALAR"
		},
		{
			"bufferView":27,
			"componentType":5126,
			"count":16,
			"max":[
				3.9841701984405518,
				2.9125282764434814,
				15.148943901062012
			],
			"min":[
				-3.986102342605591,
				2.1339848041534424,
				-0.16283340752124786
			],
			"type":"VEC3"
		},
		{
			"bufferView":28,
			"componentType":5126,
			"count":16,
			"type":"VEC3"
		},
		{
			"bufferView":29,
			"componentType":5126,
			"count":16,
			"type":"VEC2"
		},
		{
			"bufferView":30,
			"componentType":5123,
			"count":24,
			"type":"SCALAR"
		},
		{
			"bufferView":31,
			"componentType":5126,
			"count":4,
			"max":[
				4.1172027587890625,
				0.022530168294906616,
				15.213428497314453
			],
			"min":[
				-4.152067184448242,
				-0.044463008642196655,
				-0.16283342242240906
			],
			"type":"VEC3"
		},
		{
			"bufferView":32,
			"componentType":5126,
			"count":4,
			"type":"VEC3"
		},
		{
			"bufferView":33,
			"componentType":5126,
			"count":4,
			"type":"VEC2"
		},
		{
			"bufferView":34,
			"componentType":5123,
			"count":6,
			"type":"SCALAR"
		},
		{
			"bufferView":35,
			"componentType":5126,
			"count":7296,
			"max":[
				1.5832560062408447,
				0.14175400137901306,
				0.11316873133182526
			],
			"min":[
				-0.2188456654548645,
				-2.206447124481201,
				-3.0558714866638184
			],
			"type":"VEC3"
		},
		{
			"bufferView":36,
			"componentType":5126,
			"count":7296,
			"type":"VEC3"
		},
		{
			"bufferView":37,
			"componentType":5126,
			"count":7296,
			"type":"VEC2"
		},
		{
			"bufferView":38,
			"componentType":5123,
			"count":10032,
			"type":"SCALAR"
		},
		{
			"bufferView":39,
			"componentType":5126,
			"count":393,
			"max":[
				0.09507110714912415,
				0.14810943603515625,
				0.008197754621505737
			],
			"min":[
				-0.09507110714912415,
				-0.14810943603515625,
				-0.23558273911476135
			],
			"type":"VEC3"
		},
		{
			"bufferView":40,
			"componentType":5126,
			"count":393,
			"type":"VEC3"
		},
		{
			"bufferView":41,
			"componentType":5126,
			"count":393,
			"type":"VEC2"
		},
		{
			"bufferView":42,
			"componentType":5123,
			"count":714,
			"type":"SCALAR"
		},
		{
			"bufferView":43,
			"componentType":5126,
			"count":1734,
			"max":[
				0.07250827550888062,
				0.9545654058456421,
				1.2353159189224243
			],
			"min":[
				-4.262728214263916,
				-1.4132214784622192,
				-0.8996784687042236
			],
			"type":"VEC3"
		},
		{
			"bufferView":44,
			"componentType":5126,
			"count":1734,
			"type":"VEC3"
		},
		{
			"bufferView":45,
			"componentType":5126,
			"count":1734,
			"type":"VEC2"
		},
		{
			"bufferView":46,
			"componentType":5123,
			"count":3474,
			"type":"SCALAR"
		},
		{
			"bufferView":47,
			"componentType":5126,
			"count":1734,
			"max":[
				0.07250827550888062,
				0.9545654058456421,
				1.2353159189224243
			],
			"min":[
				-4.262728214263916,
				-1.4132214784622192,
				-0.8996784687042236
			],
			"type":"VEC3"
		},
		{
			"bufferView":48,
			"componentType":5126,
			"count":1734,
			"type":"VEC3"
		},
		{
			"bufferView":49,
			"componentType":5126,
			"count":1734,
			"type":"VEC2"
		},
		{
			"bufferView":50,
			"componentType":5126,
			"count":1734,
			"max":[
				0.07250827550888062,
				0.9545654058456421,
				1.2353159189224243
			],
			"min":[
				-4.262728214263916,
				-1.4132214784622192,
				-0.8996784687042236
			],
			"type":"VEC3"
		},
		{
			"bufferView":51,
			"componentType":5126,
			"count":1734,
			"type":"VEC3"
		},
		{
			"bufferView":52,
			"componentType":5126,
			"count":1734,
			"type":"VEC2"
		},
		{
			"bufferView":53,
			"componentType":5126,
			"count":1734,
			"max":[
				0.07250827550888062,
				0.9545654058456421,
				1.2353159189224243
			],
			"min":[
				-4.262728214263916,
				-1.4132214784622192,
				-0.8996784687042236
			],
			"type":"VEC3"
		},
		{
			"bufferView":54,
			"componentType":5126,
			"count":1734,
			"type":"VEC3"
		},
		{
			"bufferView":55,
			"componentType":5126,
			"count":1734,
			"type":"VEC2"
		},
		{
			"bufferView":56,
			"componentType":5126,
			"count":1734,
			"max":[
				0.07250827550888062,
				0.9545654058456421,
				1.2353159189224243
			],
			"min":[
				-4.262728214263916,
				-1.4132214784622192,
				-0.8996784687042236
			],
			"type":"VEC3"
		},
		{
			"bufferView":57,
			"componentType":5126,
			"count":1734,
			"type":"VEC3"
		},
		{
			"bufferView":58,
			"componentType":5126,
			"count":1734,
			"type":"VEC2"
		},
		{
			"bufferView":59,
			"componentType":5126,
			"count":1734,
			"max":[
				0.07250827550888062,
				0.9545654058456421,
				1.2353159189224243
			],
			"min":[
				-4.262728214263916,
				-1.4132214784622192,
				-0.8996784687042236
			],
			"type":"VEC3"
		},
		{
			"bufferView":60,
			"componentType":5126,
			"count":1734,
			"type":"VEC3"
		},
		{
			"bufferView":61,
			"componentType":5126,
			"count":1734,
			"type":"VEC2"
		}
	],
	"bufferViews":[
		{
			"buffer":0,
			"byteLength":2208,
			"byteOffset":0,
			"target":34962
		},
		{
			"buffer":0,
			"byteLength":2208,
			"byteOffset":2208,
			"target":34962
		},
		{
			"buffer":0,
			"byteLength":1472,
			"byteOffset":4416,
			"target":34962
		},
		{
			"buffer":0,
			"byteLength":600,
			"byteOffset":5888,
			"target":34963
		},
		{
			"buffer":0,
			"byteLength":288,
			"byteOffset":6488,
			"target":34962
		},
		{
			"buffer":0,
			"byteLength":288,
			"byteOffset":6776,
			"target":34962
		},
		{
			"buffer":0,
			"byteLength":192,
			"byteOffset":7064,
			"target":34962
		},
		{
			"buffer":0,
			"byteLength":72,
			"byteOffset":7256,
			"target":34963
		},
		{
			"buffer":0,
			"byteLength":288,
			"byteOffset":7328,
			"target":34962
		},
		{
			"buffer":0,
			"byteLength":288,
			"byteOffset":7616,
			"target":34962
		},
		{
			"buffer":0,
			"byteLength":192,
			"byteOffset":7904,
			"target":34962
		},
		{
			"buffer":0,
			"byteLength":13080,
			"byteOffset":8096,
			"target":34962
		},
		{
			"buffer":0,
			"byteLength":13080,
			"byteOffset":21176,
			"target":34962
		},
		{
			"buffer":0,
			"byteLength":8720,
			"byteOffset":34256,
			"target":34962
		},
		{
			"buffer":0,
			"byteLength":4380,
			"byteOffset":42976,
			"target":34963
		},
		{
			"buffer":0,
			"byteLength":1440,
			"byteOffset":47356,
			"target":34962
		},
		{
			"buffer":0,
			"byteLength":1440,
			"byteOffset":48796,
			"target":34962
		},
		{
			"buffer":0,
			"byteLength":960,
			"byteOffset":50236,
			"target":34962
		},
		{
			"buffer":0,
			"byteLength":1176,
			"byteOffset":51196,
			"target":34963
		},
		{
			"buffer":0,
			"byteLength":2544,
			"byteOffset":52372,
			"target":34962
		},
		{
			"buffer":0,
			"byteLength":2544,
			"byteOffset":54916,
			"target":34962
		},
		{
			"buffer":0,
			"byteLength":1696,
			"byteOffset":57460,
			"target":34962
		},
		{
			"buffer":0,
			"byteLength":828,
			"byteOffset":59156,
			"target":34963
		},
		{
			"buffer":0,
			"byteLength":288,
			"byteOffset":59984,
			"target":34962
		},
		{
			"buffer":0,
			"byteLength":288,
			"byteOffset":60272,
			"target":34962
		},
		{
			"buffer":0,
			"byteLength":192,
			"byteOffset":60560,
			"target":34962
		},
		{
			"buffer":0,
			"byteLength":72,
			"byteOffset":60752,
			"target":34963
		},
		{
			"buffer":0,
			"byteLength":192,
			"byteOffset":60824,
			"target":34962
		},
		{
			"buffer":0,
			"byteLength":192,
			"byteOffset":61016,
			"target":34962
		},
		{
			"buffer":0,
			"byteLength":128,
			"byteOffset":61208,
			"target":34962
		},
		{
			"buffer":0,
			"byteLength":48,
			"byteOffset":61336,
			"target":34963
		},
		{
			"buffer":0,
			"byteLength":48,
			"byteOffset":61384,
			"target":34962
		},
		{
			"buffer":0,
			"byteLength":48,
			"byteOffset":61432,
			"target":34962
		},
		{
			"buffer":0,
			"byteLength":32,
			"byteOffset":61480,
			"target":34962
		},
		{
			"buffer":0,
			"byteLength":12,
			"byteOffset":61512,
			"target":34963
		},
		{
			"buffer":0,
			"byteLength":87552,
			"byteOffset":61524,
			"target":34962
		},
		{
			"buffer":0,
			"byteLength":87552,
			"byteOffset":149076,
			"target":34962
		},
		{
			"buffer":0,
			"byteLength":58368,
			"byteOffset":236628,
			"target":34962
		},
		{
			"buffer":0,
			"byteLength":20064,
			"byteOffset":294996,
			"target":34963
		},
		{
			"buffer":0,
			"byteLength":4716,
			"byteOffset":315060,
			"target":34962
		},
		{
			"buffer":0,
			"byteLength":4716,
			"byteOffset":319776,
			"target":34962
		},
		{
			"buffer":0,
			"byteLength":3144,
			"byteOffset":324492,
			"target":34962
		},
		{
			"buffer":0,
			"byteLength":1428,
			"byteOffset":327636,
			"target":34963
		},
		{
			"buffer":0,
			"byteLength":20808,
			"byteOffset":329064,
			"target":34962
		},
		{
			"buffer":0,
			"byteLength":20808,
			"byteOffset":349872,
			"target":34962
		},
		{
			"buffer":0,
			"byteLength":13872,
			"byteOffset":370680,
			"target":34962
		},
		{
			"buffer":0,
			"byteLength":6948,
			"byteOffset":384552,
			"target":34963
		},
		{
			"buffer":0,
			"byteLength":20808,
			"byteOffset":391500,
			"target":34962
		},
		{
			"buffer":0,
			"byteLength":20808,
			"byteOffset":412308,
			"target":34962
		},
		{
			"buffer":0,
			"byteLength":13872,
			"byteOffset":433116,
			"target":34962
		},
		{
			"buffer":0,
			"byteLength":20808,
			"byteOffset":446988,
			"target":34962
		},
		{
			"buffer":0,
			"byteLength":20808,
			"byteOffset":467796,
			"target":34962
		},
		{
			"buffer":0,
			"byteLength":13872,
			"byteOffset":488604,
			"target":34962
		},
		{
			"buffer":0,
			"byteLength":20808,
			"byteOffset":502476,
			"target":34962
		},
		{
			"buffer":0,
			"byteLength":20808,
			"byteOffset":523284,
			"target":34962
		},
		{
			"buffer":0,
			"byteLength":13872,
			"byteOffset":544092,
			"target":34962
		},
		{
			"buffer":0,
			"byteLength":20808,
			"byteOffset":557964,
			"target":34962
		},
		{
			"buffer":0,
			"byteLength":20808,
			"byteOffset":578772,
			"target":34962
		},
		{
			"buffer":0,
			"byteLength":13872,
			"byteOffset":599580,
			"target":34962
		},
		{
			"buffer":0,
			"byteLength":20808,
			"byteOffset":613452,
			"target":34962
		},
		{
			"buffer":0,
			"byteLength":20808,
			"byteOffset":634260,
			"target":34962
		},
		{
			"buffer":0,
			"byteLength":13872,
			"byteOffset":655068,
			"target":34962
		}
	],
	"samplers":[
		{
			"magFilter":9729,
			"minFilter":9987
		}
	],
	"buffers":[
		{
			"byteLength":668940,
			"uri":"webScene.bin"
		}
	]
}
